<?xml version="1.0" encoding="utf-8" standalone="no"?>
<!DOCTYPE svg PUBLIC "-//W3C//DTD SVG 1.1//EN"
  "http://www.w3.org/Graphics/SVG/1.1/DTD/svg11.dtd">
<svg xmlns:xlink="http://www.w3.org/1999/xlink" width="720pt" height="288pt" viewBox="0 0 720 288" xmlns="http://www.w3.org/2000/svg" version="1.1">
 <metadata>
  <rdf:RDF xmlns:dc="http://purl.org/dc/elements/1.1/" xmlns:cc="http://creativecommons.org/ns#" xmlns:rdf="http://www.w3.org/1999/02/22-rdf-syntax-ns#">
   <cc:Work>
    <dc:type rdf:resource="http://purl.org/dc/dcmitype/StillImage"/>
    <dc:date>2026-10-11T01:30:28.136369</dc:date>
    <dc:format>image/svg+xml</dc:format>
    <dc:creator>
     <cc:Agent>
      <dc:title>Matplotlib v3.9.2, https://matplotlib.org/</dc:title>
     </cc:Agent>
    </dc:creator>
   </cc:Work>
  </rdf:RDF>
 </metadata>
 <defs>
  <style type="text/css">*{stroke-linejoin: round; stroke-linecap: butt}</style>
 </defs>
 <g id="figure_1">
  <g id="patch_1">
   <path d="M 0 288 
L 720 288 
L 720 0 
L 0 0 
z
" style="fill: #ffffff"/>
  </g>
  <g id="axes_1">
   <g id="patch_2">
    <path d="M 29.08774 254.64351 
L 356.4 254.64351 
L 356.4 35.732595 
L 29.08774 35.732595 
z
" style="fill: #ffffff"/>
   </g>
   <g id="matplotlib.axis_1">
    <g id="xtick_1">
     <g id="line2d_1">
      <path d="M 43.96557 254.64351 
L 43.96557 35.732595 
" clip-path="url(#pe89aad6c7c)" style="fill: none; stroke: #b0b0b0; stroke-opacity: 0.2; stroke-width: 0.8; stroke-linecap: square"/>
     </g>
     <g id="line2d_2">
      <defs>
       <path id="m9fe0652ddc" d="M 0 0 
L 0 3.5 
" style="stroke: #000000; stroke-width: 0.8"/>
      </defs>
      <g>
       <use xlink:href="#m9fe0652ddc" x="43.96557" y="254.64351" style="stroke: #000000; stroke-width: 0.8"/>
      </g>
     </g>
     <g id="text_1">
      <!-- 1 -->
      <g transform="translate(40.78432 269.241947) scale(0.1 -0.1)">
       <defs>
        <path id="DejaVuSans-31" d="M 794 531 
L 1825 531 
L 1825 4091 
L 703 3866 
L 703 4441 
L 1819 4666 
L 2450 4666 
L 2450 531 
L 3481 531 
L 3481 0 
L 794 0 
L 794 531 
z
" transform="scale(0.015625)"/>
       </defs>
       <use xlink:href="#DejaVuSans-31"/>
      </g>
     </g>
    </g>
    <g id="xtick_2">
     <g id="line2d_3">
      <path d="M 93.558337 254.64351 
L 93.558337 35.732595 
" clip-path="url(#pe89aad6c7c)" style="fill: none; stroke: #b0b0b0; stroke-opacity: 0.2; stroke-width: 0.8; stroke-linecap: square"/>
     </g>
     <g id="line2d_4">
      <g>
       <use xlink:href="#m9fe0652ddc" x="93.558337" y="254.64351" style="stroke: #000000; stroke-width: 0.8"/>
      </g>
     </g>
     <g id="text_2">
      <!-- 2 -->
      <g transform="translate(90.377087 269.241947) scale(0.1 -0.1)">
       <defs>
        <path id="DejaVuSans-32" d="M 1228 531 
L 3431 531 
L 3431 0 
L 469 0 
L 469 531 
Q 828 903 1448 1529 
Q 2069 2156 2228 2338 
Q 2531 2678 2651 2914 
Q 2772 3150 2772 3378 
Q 2772 3750 2511 3984 
Q 2250 4219 1831 4219 
Q 1534 4219 1204 4116 
Q 875 4013 500 3803 
L 500 4441 
Q 881 4594 1212 4672 
Q 1544 4750 1819 4750 
Q 2544 4750 2975 4387 
Q 3406 4025 3406 3419 
Q 3406 3131 3298 2873 
Q 3191 2616 2906 2266 
Q 2828 2175 2409 1742 
Q 1991 1309 1228 531 
z
" transform="scale(0.015625)"/>
       </defs>
       <use xlink:href="#DejaVuSans-32"/>
      </g>
     </g>
    </g>
    <g id="xtick_3">
     <g id="line2d_5">
      <path d="M 143.151103 254.64351 
L 143.151103 35.732595 
" clip-path="url(#pe89aad6c7c)" style="fill: none; stroke: #b0b0b0; stroke-opacity: 0.2; stroke-width: 0.8; stroke-linecap: square"/>
     </g>
     <g id="line2d_6">
      <g>
       <use xlink:href="#m9fe0652ddc" x="143.151103" y="254.64351" style="stroke: #000000; stroke-width: 0.8"/>
      </g>
     </g>
     <g id="text_3">
      <!-- 3 -->
      <g transform="translate(139.969853 269.241947) scale(0.1 -0.1)">
       <defs>
        <path id="DejaVuSans-33" d="M 2597 2516 
Q 3050 2419 3304 2112 
Q 3559 1806 3559 1356 
Q 3559 666 3084 287 
Q 2609 -91 1734 -91 
Q 1441 -91 1130 -33 
Q 819 25 488 141 
L 488 750 
Q 750 597 1062 519 
Q 1375 441 1716 441 
Q 2309 441 2620 675 
Q 2931 909 2931 1356 
Q 2931 1769 2642 2001 
Q 2353 2234 1838 2234 
L 1294 2234 
L 1294 2753 
L 1863 2753 
Q 2328 2753 2575 2939 
Q 2822 3125 2822 3475 
Q 2822 3834 2567 4026 
Q 2313 4219 1838 4219 
Q 1578 4219 1281 4162 
Q 984 4106 628 3988 
L 628 4550 
Q 988 4650 1302 4700 
Q 1616 4750 1894 4750 
Q 2613 4750 3031 4423 
Q 3450 4097 3450 3541 
Q 3450 3153 3228 2886 
Q 3006 2619 2597 2516 
z
" transform="scale(0.015625)"/>
       </defs>
       <use xlink:href="#DejaVuSans-33"/>
      </g>
     </g>
    </g>
    <g id="xtick_4">
     <g id="line2d_7">
      <path d="M 192.74387 254.64351 
L 192.74387 35.732595 
" clip-path="url(#pe89aad6c7c)" style="fill: none; stroke: #b0b0b0; stroke-opacity: 0.2; stroke-width: 0.8; stroke-linecap: square"/>
     </g>
     <g id="line2d_8">
      <g>
       <use xlink:href="#m9fe0652ddc" x="192.74387" y="254.64351" style="stroke: #000000; stroke-width: 0.8"/>
      </g>
     </g>
     <g id="text_4">
      <!-- 4 -->
      <g transform="translate(189.56262 269.241947) scale(0.1 -0.1)">
       <defs>
        <path id="DejaVuSans-34" d="M 2419 4116 
L 825 1625 
L 2419 1625 
L 2419 4116 
z
M 2253 4666 
L 3047 4666 
L 3047 1625 
L 3713 1625 
L 3713 1100 
L 3047 1100 
L 3047 0 
L 2419 0 
L 2419 1100 
L 313 1100 
L 313 1709 
L 2253 4666 
z
" transform="scale(0.015625)"/>
       </defs>
       <use xlink:href="#DejaVuSans-34"/>
      </g>
     </g>
    </g>
    <g id="xtick_5">
     <g id="line2d_9">
      <path d="M 242.336637 254.64351 
L 242.336637 35.732595 
" clip-path="url(#pe89aad6c7c)" style="fill: none; stroke: #b0b0b0; stroke-opacity: 0.2; stroke-width: 0.8; stroke-linecap: square"/>
     </g>
     <g id="line2d_10">
      <g>
       <use xlink:href="#m9fe0652ddc" x="242.336637" y="254.64351" style="stroke: #000000; stroke-width: 0.8"/>
      </g>
     </g>
     <g id="text_5">
      <!-- 5 -->
      <g transform="translate(239.155387 269.241947) scale(0.1 -0.1)">
       <defs>
        <path id="DejaVuSans-35" d="M 691 4666 
L 3169 4666 
L 3169 4134 
L 1269 4134 
L 1269 2991 
Q 1406 3038 1543 3061 
Q 1681 3084 1819 3084 
Q 2600 3084 3056 2656 
Q 3513 2228 3513 1497 
Q 3513 744 3044 326 
Q 2575 -91 1722 -91 
Q 1428 -91 1123 -41 
Q 819 9 494 109 
L 494 744 
Q 775 591 1075 516 
Q 1375 441 1709 441 
Q 2250 441 2565 725 
Q 2881 1009 2881 1497 
Q 2881 1984 2565 2268 
Q 2250 2553 1709 2553 
Q 1456 2553 1204 2497 
Q 953 2441 691 2322 
L 691 4666 
z
" transform="scale(0.015625)"/>
       </defs>
       <use xlink:href="#DejaVuSans-35"/>
      </g>
     </g>
    </g>
    <g id="xtick_6">
     <g id="line2d_11">
      <path d="M 291.929403 254.64351 
L 291.929403 35.732595 
" clip-path="url(#pe89aad6c7c)" style="fill: none; stroke: #b0b0b0; stroke-opacity: 0.2; stroke-width: 0.8; stroke-linecap: square"/>
     </g>
     <g id="line2d_12">
      <g>
       <use xlink:href="#m9fe0652ddc" x="291.929403" y="254.64351" style="stroke: #000000; stroke-width: 0.8"/>
      </g>
     </g>
     <g id="text_6">
      <!-- 6 -->
      <g transform="translate(288.748153 269.241947) scale(0.1 -0.1)">
       <defs>
        <path id="DejaVuSans-36" d="M 2113 2584 
Q 1688 2584 1439 2293 
Q 1191 2003 1191 1497 
Q 1191 994 1439 701 
Q 1688 409 2113 409 
Q 2538 409 2786 701 
Q 3034 994 3034 1497 
Q 3034 2003 2786 2293 
Q 2538 2584 2113 2584 
z
M 3366 4563 
L 3366 3988 
Q 3128 4100 2886 4159 
Q 2644 4219 2406 4219 
Q 1781 4219 1451 3797 
Q 1122 3375 1075 2522 
Q 1259 2794 1537 2939 
Q 1816 3084 2150 3084 
Q 2853 3084 3261 2657 
Q 3669 2231 3669 1497 
Q 3669 778 3244 343 
Q 2819 -91 2113 -91 
Q 1303 -91 875 529 
Q 447 1150 447 2328 
Q 447 3434 972 4092 
Q 1497 4750 2381 4750 
Q 2619 4750 2861 4703 
Q 3103 4656 3366 4563 
z
" transform="scale(0.015625)"/>
       </defs>
       <use xlink:href="#DejaVuSans-36"/>
      </g>
     </g>
    </g>
    <g id="xtick_7">
     <g id="line2d_13">
      <path d="M 341.52217 254.64351 
L 341.52217 35.732595 
" clip-path="url(#pe89aad6c7c)" style="fill: none; stroke: #b0b0b0; stroke-opacity: 0.2; stroke-width: 0.8; stroke-linecap: square"/>
     </g>
     <g id="line2d_14">
      <g>
       <use xlink:href="#m9fe0652ddc" x="341.52217" y="254.64351" style="stroke: #000000; stroke-width: 0.8"/>
      </g>
     </g>
     <g id="text_7">
      <!-- 7 -->
      <g transform="translate(338.34092 269.241947) scale(0.1 -0.1)">
       <defs>
        <path id="DejaVuSans-37" d="M 525 4666 
L 3525 4666 
L 3525 4397 
L 1831 0 
L 1172 0 
L 2766 4134 
L 525 4134 
L 525 4666 
z
" transform="scale(0.015625)"/>
       </defs>
       <use xlink:href="#DejaVuSans-37"/>
      </g>
     </g>
    </g>
    <g id="text_8">
     <!-- Native day — equal first 7 days -->
     <g transform="translate(114.196214 282.920073) scale(0.1 -0.1)">
      <defs>
       <path id="DejaVuSans-4e" d="M 628 4666 
L 1478 4666 
L 3547 763 
L 3547 4666 
L 4159 4666 
L 4159 0 
L 3309 0 
L 1241 3903 
L 1241 0 
L 628 0 
L 628 4666 
z
" transform="scale(0.015625)"/>
       <path id="DejaVuSans-61" d="M 2194 1759 
Q 1497 1759 1228 1600 
Q 959 1441 959 1056 
Q 959 750 1161 570 
Q 1363 391 1709 391 
Q 2188 391 2477 730 
Q 2766 1069 2766 1631 
L 2766 1759 
L 2194 1759 
z
M 3341 1997 
L 3341 0 
L 2766 0 
L 2766 531 
Q 2569 213 2275 61 
Q 1981 -91 1556 -91 
Q 1019 -91 701 211 
Q 384 513 384 1019 
Q 384 1609 779 1909 
Q 1175 2209 1959 2209 
L 2766 2209 
L 2766 2266 
Q 2766 2663 2505 2880 
Q 2244 3097 1772 3097 
Q 1472 3097 1187 3025 
Q 903 2953 641 2809 
L 641 3341 
Q 956 3463 1253 3523 
Q 1550 3584 1831 3584 
Q 2591 3584 2966 3190 
Q 3341 2797 3341 1997 
z
" transform="scale(0.015625)"/>
       <path id="DejaVuSans-74" d="M 1172 4494 
L 1172 3500 
L 2356 3500 
L 2356 3053 
L 1172 3053 
L 1172 1153 
Q 1172 725 1289 603 
Q 1406 481 1766 481 
L 2356 481 
L 2356 0 
L 1766 0 
Q 1100 0 847 248 
Q 594 497 594 1153 
L 594 3053 
L 172 3053 
L 172 3500 
L 594 3500 
L 594 4494 
L 1172 4494 
z
" transform="scale(0.015625)"/>
       <path id="DejaVuSans-69" d="M 603 3500 
L 1178 3500 
L 1178 0 
L 603 0 
L 603 3500 
z
M 603 4863 
L 1178 4863 
L 1178 4134 
L 603 4134 
L 603 4863 
z
" transform="scale(0.015625)"/>
       <path id="DejaVuSans-76" d="M 191 3500 
L 800 3500 
L 1894 563 
L 2988 3500 
L 3597 3500 
L 2284 0 
L 1503 0 
L 191 3500 
z
" transform="scale(0.015625)"/>
       <path id="DejaVuSans-65" d="M 3597 1894 
L 3597 1613 
L 953 1613 
Q 991 1019 1311 708 
Q 1631 397 2203 397 
Q 2534 397 2845 478 
Q 3156 559 3463 722 
L 3463 178 
Q 3153 47 2828 -22 
Q 2503 -91 2169 -91 
Q 1331 -91 842 396 
Q 353 884 353 1716 
Q 353 2575 817 3079 
Q 1281 3584 2069 3584 
Q 2775 3584 3186 3129 
Q 3597 2675 3597 1894 
z
M 3022 2063 
Q 3016 2534 2758 2815 
Q 2500 3097 2075 3097 
Q 1594 3097 1305 2825 
Q 1016 2553 972 2059 
L 3022 2063 
z
" transform="scale(0.015625)"/>
       <path id="DejaVuSans-20" transform="scale(0.015625)"/>
       <path id="DejaVuSans-64" d="M 2906 2969 
L 2906 4863 
L 3481 4863 
L 3481 0 
L 2906 0 
L 2906 525 
Q 2725 213 2448 61 
Q 2172 -91 1784 -91 
Q 1150 -91 751 415 
Q 353 922 353 1747 
Q 353 2572 751 3078 
Q 1150 3584 1784 3584 
Q 2172 3584 2448 3432 
Q 2725 3281 2906 2969 
z
M 947 1747 
Q 947 1113 1208 752 
Q 1469 391 1925 391 
Q 2381 391 2643 752 
Q 2906 1113 2906 1747 
Q 2906 2381 2643 2742 
Q 2381 3103 1925 3103 
Q 1469 3103 1208 2742 
Q 947 2381 947 1747 
z
" transform="scale(0.015625)"/>
       <path id="DejaVuSans-79" d="M 2059 -325 
Q 1816 -950 1584 -1140 
Q 1353 -1331 966 -1331 
L 506 -1331 
L 506 -850 
L 844 -850 
Q 1081 -850 1212 -737 
Q 1344 -625 1503 -206 
L 1606 56 
L 191 3500 
L 800 3500 
L 1894 763 
L 2988 3500 
L 3597 3500 
L 2059 -325 
z
" transform="scale(0.015625)"/>
       <path id="DejaVuSans-2014" d="M 313 1978 
L 6088 1978 
L 6088 1528 
L 313 1528 
L 313 1978 
z
" transform="scale(0.015625)"/>
       <path id="DejaVuSans-71" d="M 947 1747 
Q 947 1113 1208 752 
Q 1469 391 1925 391 
Q 2381 391 2643 752 
Q 2906 1113 2906 1747 
Q 2906 2381 2643 2742 
Q 2381 3103 1925 3103 
Q 1469 3103 1208 2742 
Q 947 2381 947 1747 
z
M 2906 525 
Q 2725 213 2448 61 
Q 2172 -91 1784 -91 
Q 1150 -91 751 415 
Q 353 922 353 1747 
Q 353 2572 751 3078 
Q 1150 3584 1784 3584 
Q 2172 3584 2448 3432 
Q 2725 3281 2906 2969 
L 2906 3500 
L 3481 3500 
L 3481 -1331 
L 2906 -1331 
L 2906 525 
z
" transform="scale(0.015625)"/>
       <path id="DejaVuSans-75" d="M 544 1381 
L 544 3500 
L 1119 3500 
L 1119 1403 
Q 1119 906 1312 657 
Q 1506 409 1894 409 
Q 2359 409 2629 706 
Q 2900 1003 2900 1516 
L 2900 3500 
L 3475 3500 
L 3475 0 
L 2900 0 
L 2900 538 
Q 2691 219 2414 64 
Q 2138 -91 1772 -91 
Q 1169 -91 856 284 
Q 544 659 544 1381 
z
M 1991 3584 
L 1991 3584 
z
" transform="scale(0.015625)"/>
       <path id="DejaVuSans-6c" d="M 603 4863 
L 1178 4863 
L 1178 0 
L 603 0 
L 603 4863 
z
" transform="scale(0.015625)"/>
       <path id="DejaVuSans-66" d="M 2375 4863 
L 2375 4384 
L 1825 4384 
Q 1516 4384 1395 4259 
Q 1275 4134 1275 3809 
L 1275 3500 
L 2222 3500 
L 2222 3053 
L 1275 3053 
L 1275 0 
L 697 0 
L 697 3053 
L 147 3053 
L 147 3500 
L 697 3500 
L 697 3744 
Q 697 4328 969 4595 
Q 1241 4863 1831 4863 
L 2375 4863 
z
" transform="scale(0.015625)"/>
       <path id="DejaVuSans-72" d="M 2631 2963 
Q 2534 3019 2420 3045 
Q 2306 3072 2169 3072 
Q 1681 3072 1420 2755 
Q 1159 2438 1159 1844 
L 1159 0 
L 581 0 
L 581 3500 
L 1159 3500 
L 1159 2956 
Q 1341 3275 1631 3429 
Q 1922 3584 2338 3584 
Q 2397 3584 2469 3576 
Q 2541 3569 2628 3553 
L 2631 2963 
z
" transform="scale(0.015625)"/>
       <path id="DejaVuSans-73" d="M 2834 3397 
L 2834 2853 
Q 2591 2978 2328 3040 
Q 2066 3103 1784 3103 
Q 1356 3103 1142 2972 
Q 928 2841 928 2578 
Q 928 2378 1081 2264 
Q 1234 2150 1697 2047 
L 1894 2003 
Q 2506 1872 2764 1633 
Q 3022 1394 3022 966 
Q 3022 478 2636 193 
Q 2250 -91 1575 -91 
Q 1294 -91 989 -36 
Q 684 19 347 128 
L 347 722 
Q 666 556 975 473 
Q 1284 391 1588 391 
Q 1994 391 2212 530 
Q 2431 669 2431 922 
Q 2431 1156 2273 1281 
Q 2116 1406 1581 1522 
L 1381 1569 
Q 847 1681 609 1914 
Q 372 2147 372 2553 
Q 372 3047 722 3315 
Q 1072 3584 1716 3584 
Q 2034 3584 2315 3537 
Q 2597 3491 2834 3397 
z
" transform="scale(0.015625)"/>
      </defs>
      <use xlink:href="#DejaVuSans-4e"/>
      <use xlink:href="#DejaVuSans-61" x="74.804688"/>
      <use xlink:href="#DejaVuSans-74" x="136.083984"/>
      <use xlink:href="#DejaVuSans-69" x="175.292969"/>
      <use xlink:href="#DejaVuSans-76" x="203.076172"/>
      <use xlink:href="#DejaVuSans-65" x="262.255859"/>
      <use xlink:href="#DejaVuSans-20" x="323.779297"/>
      <use xlink:href="#DejaVuSans-64" x="355.566406"/>
      <use xlink:href="#DejaVuSans-61" x="419.042969"/>
      <use xlink:href="#DejaVuSans-79" x="480.322266"/>
      <use xlink:href="#DejaVuSans-20" x="539.501953"/>
      <use xlink:href="#DejaVuSans-2014" x="571.289062"/>
      <use xlink:href="#DejaVuSans-20" x="671.289062"/>
      <use xlink:href="#DejaVuSans-65" x="703.076172"/>
      <use xlink:href="#DejaVuSans-71" x="764.599609"/>
      <use xlink:href="#DejaVuSans-75" x="828.076172"/>
      <use xlink:href="#DejaVuSans-61" x="891.455078"/>
      <use xlink:href="#DejaVuSans-6c" x="952.734375"/>
      <use xlink:href="#DejaVuSans-20" x="980.517578"/>
      <use xlink:href="#DejaVuSans-66" x="1012.304688"/>
      <use xlink:href="#DejaVuSans-69" x="1047.509766"/>
      <use xlink:href="#DejaVuSans-72" x="1075.292969"/>
      <use xlink:href="#DejaVuSans-73" x="1116.40625"/>
      <use xlink:href="#DejaVuSans-74" x="1168.505859"/>
      <use xlink:href="#DejaVuSans-20" x="1207.714844"/>
      <use xlink:href="#DejaVuSans-37" x="1239.501953"/>
      <use xlink:href="#DejaVuSans-20" x="1303.125"/>
      <use xlink:href="#DejaVuSans-64" x="1334.912109"/>
      <use xlink:href="#DejaVuSans-61" x="1398.388672"/>
      <use xlink:href="#DejaVuSans-79" x="1459.667969"/>
      <use xlink:href="#DejaVuSans-73" x="1518.847656"/>
     </g>
    </g>
   </g>
   <g id="matplotlib.axis_2">
    <g id="ytick_1">
     <g id="line2d_15">
      <path d="M 29.08774 241.526947 
L 356.4 241.526947 
" clip-path="url(#pe89aad6c7c)" style="fill: none; stroke: #b0b0b0; stroke-opacity: 0.2; stroke-width: 0.8; stroke-linecap: square"/>
     </g>
     <g id="line2d_16">
      <defs>
       <path id="m93518f4b44" d="M 0 0 
L -3.5 0 
" style="stroke: #000000; stroke-width: 0.8"/>
      </defs>
      <g>
       <use xlink:href="#m93518f4b44" x="29.08774" y="241.526947" style="stroke: #000000; stroke-width: 0.8"/>
      </g>
     </g>
     <g id="text_9">
      <!-- 200 -->
      <g transform="translate(3.00024 245.326166) scale(0.1 -0.1)">
       <defs>
        <path id="DejaVuSans-30" d="M 2034 4250 
Q 1547 4250 1301 3770 
Q 1056 3291 1056 2328 
Q 1056 1369 1301 889 
Q 1547 409 2034 409 
Q 2525 409 2770 889 
Q 3016 1369 3016 2328 
Q 3016 3291 2770 3770 
Q 2525 4250 2034 4250 
z
M 2034 4750 
Q 2819 4750 3233 4129 
Q 3647 3509 3647 2328 
Q 3647 1150 3233 529 
Q 2819 -91 2034 -91 
Q 1250 -91 836 529 
Q 422 1150 422 2328 
Q 422 3509 836 4129 
Q 1250 4750 2034 4750 
z
" transform="scale(0.015625)"/>
       </defs>
       <use xlink:href="#DejaVuSans-32"/>
       <use xlink:href="#DejaVuSans-30" x="63.623047"/>
       <use xlink:href="#DejaVuSans-30" x="127.246094"/>
      </g>
     </g>
    </g>
    <g id="ytick_2">
     <g id="line2d_17">
      <path d="M 29.08774 196.297419 
L 356.4 196.297419 
" clip-path="url(#pe89aad6c7c)" style="fill: none; stroke: #b0b0b0; stroke-opacity: 0.2; stroke-width: 0.8; stroke-linecap: square"/>
     </g>
     <g id="line2d_18">
      <g>
       <use xlink:href="#m93518f4b44" x="29.08774" y="196.297419" style="stroke: #000000; stroke-width: 0.8"/>
      </g>
     </g>
     <g id="text_10">
      <!-- 300 -->
      <g transform="translate(3.00024 200.096638) scale(0.1 -0.1)">
       <use xlink:href="#DejaVuSans-33"/>
       <use xlink:href="#DejaVuSans-30" x="63.623047"/>
       <use xlink:href="#DejaVuSans-30" x="127.246094"/>
      </g>
     </g>
    </g>
    <g id="ytick_3">
     <g id="line2d_19">
      <path d="M 29.08774 151.067891 
L 356.4 151.067891 
" clip-path="url(#pe89aad6c7c)" style="fill: none; stroke: #b0b0b0; stroke-opacity: 0.2; stroke-width: 0.8; stroke-linecap: square"/>
     </g>
     <g id="line2d_20">
      <g>
       <use xlink:href="#m93518f4b44" x="29.08774" y="151.067891" style="stroke: #000000; stroke-width: 0.8"/>
      </g>
     </g>
     <g id="text_11">
      <!-- 400 -->
      <g transform="translate(3.00024 154.86711) scale(0.1 -0.1)">
       <use xlink:href="#DejaVuSans-34"/>
       <use xlink:href="#DejaVuSans-30" x="63.623047"/>
       <use xlink:href="#DejaVuSans-30" x="127.246094"/>
      </g>
     </g>
    </g>
    <g id="ytick_4">
     <g id="line2d_21">
      <path d="M 29.08774 105.838363 
L 356.4 105.838363 
" clip-path="url(#pe89aad6c7c)" style="fill: none; stroke: #b0b0b0; stroke-opacity: 0.2; stroke-width: 0.8; stroke-linecap: square"/>
     </g>
     <g id="line2d_22">
      <g>
       <use xlink:href="#m93518f4b44" x="29.08774" y="105.838363" style="stroke: #000000; stroke-width: 0.8"/>
      </g>
     </g>
     <g id="text_12">
      <!-- 500 -->
      <g transform="translate(3.00024 109.637582) scale(0.1 -0.1)">
       <use xlink:href="#DejaVuSans-35"/>
       <use xlink:href="#DejaVuSans-30" x="63.623047"/>
       <use xlink:href="#DejaVuSans-30" x="127.246094"/>
      </g>
     </g>
    </g>
    <g id="ytick_5">
     <g id="line2d_23">
      <path d="M 29.08774 60.608835 
L 356.4 60.608835 
" clip-path="url(#pe89aad6c7c)" style="fill: none; stroke: #b0b0b0; stroke-opacity: 0.2; stroke-width: 0.8; stroke-linecap: square"/>
     </g>
     <g id="line2d_24">
      <g>
       <use xlink:href="#m93518f4b44" x="29.08774" y="60.608835" style="stroke: #000000; stroke-width: 0.8"/>
      </g>
     </g>
     <g id="text_13">
      <!-- 600 -->
      <g transform="translate(3.00024 64.408054) scale(0.1 -0.1)">
       <use xlink:href="#DejaVuSans-36"/>
       <use xlink:href="#DejaVuSans-30" x="63.623047"/>
       <use xlink:href="#DejaVuSans-30" x="127.246094"/>
      </g>
     </g>
    </g>
   </g>
   <g id="line2d_25">
    <path d="M 43.96557 232.028746 
L 93.558337 244.693014 
L 143.151103 208.509392 
L 192.74387 170.968883 
L 242.336637 45.683091 
L 291.929403 47.039977 
L 341.52217 67.84556 
" clip-path="url(#pe89aad6c7c)" style="fill: none; stroke: #1f77b4; stroke-width: 1.5; stroke-linecap: square"/>
    <defs>
     <path id="m4ba52f9f7b" d="M 0 3 
C 0.795609 3 1.55874 2.683901 2.12132 2.12132 
C 2.683901 1.55874 3 0.795609 3 0 
C 3 -0.795609 2.683901 -1.55874 2.12132 -2.12132 
C 1.55874 -2.683901 0.795609 -3 0 -3 
C -0.795609 -3 -1.55874 -2.683901 -2.12132 -2.12132 
C -2.683901 -1.55874 -3 -0.795609 -3 0 
C -3 0.795609 -2.683901 1.55874 -2.12132 2.12132 
C -1.55874 2.683901 -0.795609 3 0 3 
z
" style="stroke: #1f77b4"/>
    </defs>
    <g clip-path="url(#pe89aad6c7c)">
     <use xlink:href="#m4ba52f9f7b" x="43.96557" y="232.028746" style="fill: #1f77b4; stroke: #1f77b4"/>
     <use xlink:href="#m4ba52f9f7b" x="93.558337" y="244.693014" style="fill: #1f77b4; stroke: #1f77b4"/>
     <use xlink:href="#m4ba52f9f7b" x="143.151103" y="208.509392" style="fill: #1f77b4; stroke: #1f77b4"/>
     <use xlink:href="#m4ba52f9f7b" x="192.74387" y="170.968883" style="fill: #1f77b4; stroke: #1f77b4"/>
     <use xlink:href="#m4ba52f9f7b" x="242.336637" y="45.683091" style="fill: #1f77b4; stroke: #1f77b4"/>
     <use xlink:href="#m4ba52f9f7b" x="291.929403" y="47.039977" style="fill: #1f77b4; stroke: #1f77b4"/>
     <use xlink:href="#m4ba52f9f7b" x="341.52217" y="67.84556" style="fill: #1f77b4; stroke: #1f77b4"/>
    </g>
   </g>
   <g id="line2d_26">
    <path d="M 43.96557 240.170061 
L 93.558337 227.958089 
L 143.151103 196.749714 
L 192.74387 237.003994 
L 242.336637 236.099404 
L 291.929403 195.845124 
L 341.52217 236.099404 
" clip-path="url(#pe89aad6c7c)" style="fill: none; stroke: #ff7f0e; stroke-width: 1.5; stroke-linecap: square"/>
    <defs>
     <path id="mc55b5df3be" d="M 0 3 
C 0.795609 3 1.55874 2.683901 2.12132 2.12132 
C 2.683901 1.55874 3 0.795609 3 0 
C 3 -0.795609 2.683901 -1.55874 2.12132 -2.12132 
C 1.55874 -2.683901 0.795609 -3 0 -3 
C -0.795609 -3 -1.55874 -2.683901 -2.12132 -2.12132 
C -2.683901 -1.55874 -3 -0.795609 -3 0 
C -3 0.795609 -2.683901 1.55874 -2.12132 2.12132 
C -1.55874 2.683901 -0.795609 3 0 3 
z
" style="stroke: #ff7f0e"/>
    </defs>
    <g clip-path="url(#pe89aad6c7c)">
     <use xlink:href="#mc55b5df3be" x="43.96557" y="240.170061" style="fill: #ff7f0e; stroke: #ff7f0e"/>
     <use xlink:href="#mc55b5df3be" x="93.558337" y="227.958089" style="fill: #ff7f0e; stroke: #ff7f0e"/>
     <use xlink:href="#mc55b5df3be" x="143.151103" y="196.749714" style="fill: #ff7f0e; stroke: #ff7f0e"/>
     <use xlink:href="#mc55b5df3be" x="192.74387" y="237.003994" style="fill: #ff7f0e; stroke: #ff7f0e"/>
     <use xlink:href="#mc55b5df3be" x="242.336637" y="236.099404" style="fill: #ff7f0e; stroke: #ff7f0e"/>
     <use xlink:href="#mc55b5df3be" x="291.929403" y="195.845124" style="fill: #ff7f0e; stroke: #ff7f0e"/>
     <use xlink:href="#mc55b5df3be" x="341.52217" y="236.099404" style="fill: #ff7f0e; stroke: #ff7f0e"/>
    </g>
   </g>
   <g id="patch_3">
    <path d="M 29.08774 254.64351 
L 29.08774 35.732595 
" style="fill: none; stroke: #000000; stroke-width: 0.8; stroke-linejoin: miter; stroke-linecap: square"/>
   </g>
   <g id="patch_4">
    <path d="M 356.4 254.64351 
L 356.4 35.732595 
" style="fill: none; stroke: #000000; stroke-width: 0.8; stroke-linejoin: miter; stroke-linecap: square"/>
   </g>
   <g id="patch_5">
    <path d="M 29.08774 254.64351 
L 356.4 254.64351 
" style="fill: none; stroke: #000000; stroke-width: 0.8; stroke-linejoin: miter; stroke-linecap: square"/>
   </g>
   <g id="patch_6">
    <path d="M 29.08774 35.732595 
L 356.4 35.732595 
" style="fill: none; stroke: #000000; stroke-width: 0.8; stroke-linejoin: miter; stroke-linecap: square"/>
   </g>
   <g id="text_14">
    <!-- Available coins -->
    <g transform="translate(148.113245 29.732595) scale(0.12 -0.12)">
     <defs>
      <path id="DejaVuSans-41" d="M 2188 4044 
L 1331 1722 
L 3047 1722 
L 2188 4044 
z
M 1831 4666 
L 2547 4666 
L 4325 0 
L 3669 0 
L 3244 1197 
L 1141 1197 
L 716 0 
L 50 0 
L 1831 4666 
z
" transform="scale(0.015625)"/>
      <path id="DejaVuSans-62" d="M 3116 1747 
Q 3116 2381 2855 2742 
Q 2594 3103 2138 3103 
Q 1681 3103 1420 2742 
Q 1159 2381 1159 1747 
Q 1159 1113 1420 752 
Q 1681 391 2138 391 
Q 2594 391 2855 752 
Q 3116 1113 3116 1747 
z
M 1159 2969 
Q 1341 3281 1617 3432 
Q 1894 3584 2278 3584 
Q 2916 3584 3314 3078 
Q 3713 2572 3713 1747 
Q 3713 922 3314 415 
Q 2916 -91 2278 -91 
Q 1894 -91 1617 61 
Q 1341 213 1159 525 
L 1159 0 
L 581 0 
L 581 4863 
L 1159 4863 
L 1159 2969 
z
" transform="scale(0.015625)"/>
      <path id="DejaVuSans-63" d="M 3122 3366 
L 3122 2828 
Q 2878 2963 2633 3030 
Q 2388 3097 2138 3097 
Q 1578 3097 1268 2742 
Q 959 2388 959 1747 
Q 959 1106 1268 751 
Q 1578 397 2138 397 
Q 2388 397 2633 464 
Q 2878 531 3122 666 
L 3122 134 
Q 2881 22 2623 -34 
Q 2366 -91 2075 -91 
Q 1284 -91 818 406 
Q 353 903 353 1747 
Q 353 2603 823 3093 
Q 1294 3584 2113 3584 
Q 2378 3584 2631 3529 
Q 2884 3475 3122 3366 
z
" transform="scale(0.015625)"/>
      <path id="DejaVuSans-6f" d="M 1959 3097 
Q 1497 3097 1228 2736 
Q 959 2375 959 1747 
Q 959 1119 1226 758 
Q 1494 397 1959 397 
Q 2419 397 2687 759 
Q 2956 1122 2956 1747 
Q 2956 2369 2687 2733 
Q 2419 3097 1959 3097 
z
M 1959 3584 
Q 2709 3584 3137 3096 
Q 3566 2609 3566 1747 
Q 3566 888 3137 398 
Q 2709 -91 1959 -91 
Q 1206 -91 779 398 
Q 353 888 353 1747 
Q 353 2609 779 3096 
Q 1206 3584 1959 3584 
z
" transform="scale(0.015625)"/>
      <path id="DejaVuSans-6e" d="M 3513 2113 
L 3513 0 
L 2938 0 
L 2938 2094 
Q 2938 2591 2744 2837 
Q 2550 3084 2163 3084 
Q 1697 3084 1428 2787 
Q 1159 2491 1159 1978 
L 1159 0 
L 581 0 
L 581 3500 
L 1159 3500 
L 1159 2956 
Q 1366 3272 1645 3428 
Q 1925 3584 2291 3584 
Q 2894 3584 3203 3211 
Q 3513 2838 3513 2113 
z
" transform="scale(0.015625)"/>
     </defs>
     <use xlink:href="#DejaVuSans-41"/>
     <use xlink:href="#DejaVuSans-76" x="62.533203"/>
     <use xlink:href="#DejaVuSans-61" x="121.712891"/>
     <use xlink:href="#DejaVuSans-69" x="182.992188"/>
     <use xlink:href="#DejaVuSans-6c" x="210.775391"/>
     <use xlink:href="#DejaVuSans-61" x="238.558594"/>
     <use xlink:href="#DejaVuSans-62" x="299.837891"/>
     <use xlink:href="#DejaVuSans-6c" x="363.314453"/>
     <use xlink:href="#DejaVuSans-65" x="391.097656"/>
     <use xlink:href="#DejaVuSans-20" x="452.621094"/>
     <use xlink:href="#DejaVuSans-63" x="484.408203"/>
     <use xlink:href="#DejaVuSans-6f" x="539.388672"/>
     <use xlink:href="#DejaVuSans-69" x="600.570312"/>
     <use xlink:href="#DejaVuSans-6e" x="628.353516"/>
     <use xlink:href="#DejaVuSans-73" x="691.732422"/>
    </g>
   </g>
   <g id="legend_1">
    <g id="patch_7">
     <path d="M 36.08774 73.088845 
L 105.833053 73.088845 
Q 107.833053 73.088845 107.833053 71.088845 
L 107.833053 42.732595 
Q 107.833053 40.732595 105.833053 40.732595 
L 36.08774 40.732595 
Q 34.08774 40.732595 34.08774 42.732595 
L 34.08774 71.088845 
Q 34.08774 73.088845 36.08774 73.088845 
z
" style="fill: #ffffff; opacity: 0.8; stroke: #cccccc; stroke-linejoin: miter"/>
    </g>
    <g id="line2d_27">
     <path d="M 38.08774 48.831032 
L 48.08774 48.831032 
L 58.08774 48.831032 
" style="fill: none; stroke: #1f77b4; stroke-width: 1.5; stroke-linecap: square"/>
     <g>
      <use xlink:href="#m4ba52f9f7b" x="48.08774" y="48.831032" style="fill: #1f77b4; stroke: #1f77b4"/>
     </g>
    </g>
    <g id="text_15">
     <!-- good -->
     <g transform="translate(66.08774 52.331032) scale(0.1 -0.1)">
      <defs>
       <path id="DejaVuSans-67" d="M 2906 1791 
Q 2906 2416 2648 2759 
Q 2391 3103 1925 3103 
Q 1463 3103 1205 2759 
Q 947 2416 947 1791 
Q 947 1169 1205 825 
Q 1463 481 1925 481 
Q 2391 481 2648 825 
Q 2906 1169 2906 1791 
z
M 3481 434 
Q 3481 -459 3084 -895 
Q 2688 -1331 1869 -1331 
Q 1566 -1331 1297 -1286 
Q 1028 -1241 775 -1147 
L 775 -588 
Q 1028 -725 1275 -790 
Q 1522 -856 1778 -856 
Q 2344 -856 2625 -561 
Q 2906 -266 2906 331 
L 2906 616 
Q 2728 306 2450 153 
Q 2172 0 1784 0 
Q 1141 0 747 490 
Q 353 981 353 1791 
Q 353 2603 747 3093 
Q 1141 3584 1784 3584 
Q 2172 3584 2450 3431 
Q 2728 3278 2906 2969 
L 2906 3500 
L 3481 3500 
L 3481 434 
z
" transform="scale(0.015625)"/>
      </defs>
      <use xlink:href="#DejaVuSans-67"/>
      <use xlink:href="#DejaVuSans-6f" x="63.476562"/>
      <use xlink:href="#DejaVuSans-6f" x="124.658203"/>
      <use xlink:href="#DejaVuSans-64" x="185.839844"/>
     </g>
    </g>
    <g id="line2d_28">
     <path d="M 38.08774 63.509157 
L 48.08774 63.509157 
L 58.08774 63.509157 
" style="fill: none; stroke: #ff7f0e; stroke-width: 1.5; stroke-linecap: square"/>
     <g>
      <use xlink:href="#mc55b5df3be" x="48.08774" y="63.509157" style="fill: #ff7f0e; stroke: #ff7f0e"/>
     </g>
    </g>
    <g id="text_16">
     <!-- passive -->
     <g transform="translate(66.08774 67.009157) scale(0.1 -0.1)">
      <defs>
       <path id="DejaVuSans-70" d="M 1159 525 
L 1159 -1331 
L 581 -1331 
L 581 3500 
L 1159 3500 
L 1159 2969 
Q 1341 3281 1617 3432 
Q 1894 3584 2278 3584 
Q 2916 3584 3314 3078 
Q 3713 2572 3713 1747 
Q 3713 922 3314 415 
Q 2916 -91 2278 -91 
Q 1894 -91 1617 61 
Q 1341 213 1159 525 
z
M 3116 1747 
Q 3116 2381 2855 2742 
Q 2594 3103 2138 3103 
Q 1681 3103 1420 2742 
Q 1159 2381 1159 1747 
Q 1159 1113 1420 752 
Q 1681 391 2138 391 
Q 2594 391 2855 752 
Q 3116 1113 3116 1747 
z
" transform="scale(0.015625)"/>
      </defs>
      <use xlink:href="#DejaVuSans-70"/>
      <use xlink:href="#DejaVuSans-61" x="63.476562"/>
      <use xlink:href="#DejaVuSans-73" x="124.755859"/>
      <use xlink:href="#DejaVuSans-73" x="176.855469"/>
      <use xlink:href="#DejaVuSans-69" x="228.955078"/>
      <use xlink:href="#DejaVuSans-76" x="256.738281"/>
      <use xlink:href="#DejaVuSans-65" x="315.917969"/>
     </g>
    </g>
   </g>
  </g>
  <g id="axes_2">
   <g id="patch_8">
    <path d="M 389.6875 254.64351 
L 716.99976 254.64351 
L 716.99976 35.732595 
L 389.6875 35.732595 
z
" style="fill: #ffffff"/>
   </g>
   <g id="matplotlib.axis_3">
    <g id="xtick_8">
     <g id="line2d_29">
      <path d="M 404.56533 254.64351 
L 404.56533 35.732595 
" clip-path="url(#p2122fea521)" style="fill: none; stroke: #b0b0b0; stroke-opacity: 0.2; stroke-width: 0.8; stroke-linecap: square"/>
     </g>
     <g id="line2d_30">
      <g>
       <use xlink:href="#m9fe0652ddc" x="404.56533" y="254.64351" style="stroke: #000000; stroke-width: 0.8"/>
      </g>
     </g>
     <g id="text_17">
      <!-- 1 -->
      <g transform="translate(401.38408 269.241947) scale(0.1 -0.1)">
       <use xlink:href="#DejaVuSans-31"/>
      </g>
     </g>
    </g>
    <g id="xtick_9">
     <g id="line2d_31">
      <path d="M 454.158097 254.64351 
L 454.158097 35.732595 
" clip-path="url(#p2122fea521)" style="fill: none; stroke: #b0b0b0; stroke-opacity: 0.2; stroke-width: 0.8; stroke-linecap: square"/>
     </g>
     <g id="line2d_32">
      <g>
       <use xlink:href="#m9fe0652ddc" x="454.158097" y="254.64351" style="stroke: #000000; stroke-width: 0.8"/>
      </g>
     </g>
     <g id="text_18">
      <!-- 2 -->
      <g transform="translate(450.976847 269.241947) scale(0.1 -0.1)">
       <use xlink:href="#DejaVuSans-32"/>
      </g>
     </g>
    </g>
    <g id="xtick_10">
     <g id="line2d_33">
      <path d="M 503.750863 254.64351 
L 503.750863 35.732595 
" clip-path="url(#p2122fea521)" style="fill: none; stroke: #b0b0b0; stroke-opacity: 0.2; stroke-width: 0.8; stroke-linecap: square"/>
     </g>
     <g id="line2d_34">
      <g>
       <use xlink:href="#m9fe0652ddc" x="503.750863" y="254.64351" style="stroke: #000000; stroke-width: 0.8"/>
      </g>
     </g>
     <g id="text_19">
      <!-- 3 -->
      <g transform="translate(500.569613 269.241947) scale(0.1 -0.1)">
       <use xlink:href="#DejaVuSans-33"/>
      </g>
     </g>
    </g>
    <g id="xtick_11">
     <g id="line2d_35">
      <path d="M 553.34363 254.64351 
L 553.34363 35.732595 
" clip-path="url(#p2122fea521)" style="fill: none; stroke: #b0b0b0; stroke-opacity: 0.2; stroke-width: 0.8; stroke-linecap: square"/>
     </g>
     <g id="line2d_36">
      <g>
       <use xlink:href="#m9fe0652ddc" x="553.34363" y="254.64351" style="stroke: #000000; stroke-width: 0.8"/>
      </g>
     </g>
     <g id="text_20">
      <!-- 4 -->
      <g transform="translate(550.16238 269.241947) scale(0.1 -0.1)">
       <use xlink:href="#DejaVuSans-34"/>
      </g>
     </g>
    </g>
    <g id="xtick_12">
     <g id="line2d_37">
      <path d="M 602.936397 254.64351 
L 602.936397 35.732595 
" clip-path="url(#p2122fea521)" style="fill: none; stroke: #b0b0b0; stroke-opacity: 0.2; stroke-width: 0.8; stroke-linecap: square"/>
     </g>
     <g id="line2d_38">
      <g>
       <use xlink:href="#m9fe0652ddc" x="602.936397" y="254.64351" style="stroke: #000000; stroke-width: 0.8"/>
      </g>
     </g>
     <g id="text_21">
      <!-- 5 -->
      <g transform="translate(599.755147 269.241947) scale(0.1 -0.1)">
       <use xlink:href="#DejaVuSans-35"/>
      </g>
     </g>
    </g>
    <g id="xtick_13">
     <g id="line2d_39">
      <path d="M 652.529163 254.64351 
L 652.529163 35.732595 
" clip-path="url(#p2122fea521)" style="fill: none; stroke: #b0b0b0; stroke-opacity: 0.2; stroke-width: 0.8; stroke-linecap: square"/>
     </g>
     <g id="line2d_40">
      <g>
       <use xlink:href="#m9fe0652ddc" x="652.529163" y="254.64351" style="stroke: #000000; stroke-width: 0.8"/>
      </g>
     </g>
     <g id="text_22">
      <!-- 6 -->
      <g transform="translate(649.347913 269.241947) scale(0.1 -0.1)">
       <use xlink:href="#DejaVuSans-36"/>
      </g>
     </g>
    </g>
    <g id="xtick_14">
     <g id="line2d_41">
      <path d="M 702.12193 254.64351 
L 702.12193 35.732595 
" clip-path="url(#p2122fea521)" style="fill: none; stroke: #b0b0b0; stroke-opacity: 0.2; stroke-width: 0.8; stroke-linecap: square"/>
     </g>
     <g id="line2d_42">
      <g>
       <use xlink:href="#m9fe0652ddc" x="702.12193" y="254.64351" style="stroke: #000000; stroke-width: 0.8"/>
      </g>
     </g>
     <g id="text_23">
      <!-- 7 -->
      <g transform="translate(698.94068 269.241947) scale(0.1 -0.1)">
       <use xlink:href="#DejaVuSans-37"/>
      </g>
     </g>
    </g>
    <g id="text_24">
     <!-- Native day — equal first 7 days -->
     <g transform="translate(474.795974 282.920073) scale(0.1 -0.1)">
      <use xlink:href="#DejaVuSans-4e"/>
      <use xlink:href="#DejaVuSans-61" x="74.804688"/>
      <use xlink:href="#DejaVuSans-74" x="136.083984"/>
      <use xlink:href="#DejaVuSans-69" x="175.292969"/>
      <use xlink:href="#DejaVuSans-76" x="203.076172"/>
      <use xlink:href="#DejaVuSans-65" x="262.255859"/>
      <use xlink:href="#DejaVuSans-20" x="323.779297"/>
      <use xlink:href="#DejaVuSans-64" x="355.566406"/>
      <use xlink:href="#DejaVuSans-61" x="419.042969"/>
      <use xlink:href="#DejaVuSans-79" x="480.322266"/>
      <use xlink:href="#DejaVuSans-20" x="539.501953"/>
      <use xlink:href="#DejaVuSans-2014" x="571.289062"/>
      <use xlink:href="#DejaVuSans-20" x="671.289062"/>
      <use xlink:href="#DejaVuSans-65" x="703.076172"/>
      <use xlink:href="#DejaVuSans-71" x="764.599609"/>
      <use xlink:href="#DejaVuSans-75" x="828.076172"/>
      <use xlink:href="#DejaVuSans-61" x="891.455078"/>
      <use xlink:href="#DejaVuSans-6c" x="952.734375"/>
      <use xlink:href="#DejaVuSans-20" x="980.517578"/>
      <use xlink:href="#DejaVuSans-66" x="1012.304688"/>
      <use xlink:href="#DejaVuSans-69" x="1047.509766"/>
      <use xlink:href="#DejaVuSans-72" x="1075.292969"/>
      <use xlink:href="#DejaVuSans-73" x="1116.40625"/>
      <use xlink:href="#DejaVuSans-74" x="1168.505859"/>
      <use xlink:href="#DejaVuSans-20" x="1207.714844"/>
      <use xlink:href="#DejaVuSans-37" x="1239.501953"/>
      <use xlink:href="#DejaVuSans-20" x="1303.125"/>
      <use xlink:href="#DejaVuSans-64" x="1334.912109"/>
      <use xlink:href="#DejaVuSans-61" x="1398.388672"/>
      <use xlink:href="#DejaVuSans-79" x="1459.667969"/>
      <use xlink:href="#DejaVuSans-73" x="1518.847656"/>
     </g>
    </g>
   </g>
   <g id="matplotlib.axis_4">
    <g id="ytick_6">
     <g id="line2d_43">
      <path d="M 389.6875 241.041456 
L 716.99976 241.041456 
" clip-path="url(#p2122fea521)" style="fill: none; stroke: #b0b0b0; stroke-opacity: 0.2; stroke-width: 0.8; stroke-linecap: square"/>
     </g>
     <g id="line2d_44">
      <g>
       <use xlink:href="#m93518f4b44" x="389.6875" y="241.041456" style="stroke: #000000; stroke-width: 0.8"/>
      </g>
     </g>
     <g id="text_25">
      <!-- 80 -->
      <g transform="translate(369.9625 244.840674) scale(0.1 -0.1)">
       <defs>
        <path id="DejaVuSans-38" d="M 2034 2216 
Q 1584 2216 1326 1975 
Q 1069 1734 1069 1313 
Q 1069 891 1326 650 
Q 1584 409 2034 409 
Q 2484 409 2743 651 
Q 3003 894 3003 1313 
Q 3003 1734 2745 1975 
Q 2488 2216 2034 2216 
z
M 1403 2484 
Q 997 2584 770 2862 
Q 544 3141 544 3541 
Q 544 4100 942 4425 
Q 1341 4750 2034 4750 
Q 2731 4750 3128 4425 
Q 3525 4100 3525 3541 
Q 3525 3141 3298 2862 
Q 3072 2584 2669 2484 
Q 3125 2378 3379 2068 
Q 3634 1759 3634 1313 
Q 3634 634 3220 271 
Q 2806 -91 2034 -91 
Q 1263 -91 848 271 
Q 434 634 434 1313 
Q 434 1759 690 2068 
Q 947 2378 1403 2484 
z
M 1172 3481 
Q 1172 3119 1398 2916 
Q 1625 2713 2034 2713 
Q 2441 2713 2670 2916 
Q 2900 3119 2900 3481 
Q 2900 3844 2670 4047 
Q 2441 4250 2034 4250 
Q 1625 4250 1398 4047 
Q 1172 3844 1172 3481 
z
" transform="scale(0.015625)"/>
       </defs>
       <use xlink:href="#DejaVuSans-38"/>
       <use xlink:href="#DejaVuSans-30" x="63.623047"/>
      </g>
     </g>
    </g>
    <g id="ytick_7">
     <g id="line2d_45">
      <path d="M 389.6875 204.525873 
L 716.99976 204.525873 
" clip-path="url(#p2122fea521)" style="fill: none; stroke: #b0b0b0; stroke-opacity: 0.2; stroke-width: 0.8; stroke-linecap: square"/>
     </g>
     <g id="line2d_46">
      <g>
       <use xlink:href="#m93518f4b44" x="389.6875" y="204.525873" style="stroke: #000000; stroke-width: 0.8"/>
      </g>
     </g>
     <g id="text_26">
      <!-- 100 -->
      <g transform="translate(363.6 208.325092) scale(0.1 -0.1)">
       <use xlink:href="#DejaVuSans-31"/>
       <use xlink:href="#DejaVuSans-30" x="63.623047"/>
       <use xlink:href="#DejaVuSans-30" x="127.246094"/>
      </g>
     </g>
    </g>
    <g id="ytick_8">
     <g id="line2d_47">
      <path d="M 389.6875 168.010291 
L 716.99976 168.010291 
" clip-path="url(#p2122fea521)" style="fill: none; stroke: #b0b0b0; stroke-opacity: 0.2; stroke-width: 0.8; stroke-linecap: square"/>
     </g>
     <g id="line2d_48">
      <g>
       <use xlink:href="#m93518f4b44" x="389.6875" y="168.010291" style="stroke: #000000; stroke-width: 0.8"/>
      </g>
     </g>
     <g id="text_27">
      <!-- 120 -->
      <g transform="translate(363.6 171.80951) scale(0.1 -0.1)">
       <use xlink:href="#DejaVuSans-31"/>
       <use xlink:href="#DejaVuSans-32" x="63.623047"/>
       <use xlink:href="#DejaVuSans-30" x="127.246094"/>
      </g>
     </g>
    </g>
    <g id="ytick_9">
     <g id="line2d_49">
      <path d="M 389.6875 131.494709 
L 716.99976 131.494709 
" clip-path="url(#p2122fea521)" style="fill: none; stroke: #b0b0b0; stroke-opacity: 0.2; stroke-width: 0.8; stroke-linecap: square"/>
     </g>
     <g id="line2d_50">
      <g>
       <use xlink:href="#m93518f4b44" x="389.6875" y="131.494709" style="stroke: #000000; stroke-width: 0.8"/>
      </g>
     </g>
     <g id="text_28">
      <!-- 140 -->
      <g transform="translate(363.6 135.293928) scale(0.1 -0.1)">
       <use xlink:href="#DejaVuSans-31"/>
       <use xlink:href="#DejaVuSans-34" x="63.623047"/>
       <use xlink:href="#DejaVuSans-30" x="127.246094"/>
      </g>
     </g>
    </g>
    <g id="ytick_10">
     <g id="line2d_51">
      <path d="M 389.6875 94.979127 
L 716.99976 94.979127 
" clip-path="url(#p2122fea521)" style="fill: none; stroke: #b0b0b0; stroke-opacity: 0.2; stroke-width: 0.8; stroke-linecap: square"/>
     </g>
     <g id="line2d_52">
      <g>
       <use xlink:href="#m93518f4b44" x="389.6875" y="94.979127" style="stroke: #000000; stroke-width: 0.8"/>
      </g>
     </g>
     <g id="text_29">
      <!-- 160 -->
      <g transform="translate(363.6 98.778346) scale(0.1 -0.1)">
       <use xlink:href="#DejaVuSans-31"/>
       <use xlink:href="#DejaVuSans-36" x="63.623047"/>
       <use xlink:href="#DejaVuSans-30" x="127.246094"/>
      </g>
     </g>
    </g>
    <g id="ytick_11">
     <g id="line2d_53">
      <path d="M 389.6875 58.463545 
L 716.99976 58.463545 
" clip-path="url(#p2122fea521)" style="fill: none; stroke: #b0b0b0; stroke-opacity: 0.2; stroke-width: 0.8; stroke-linecap: square"/>
     </g>
     <g id="line2d_54">
      <g>
       <use xlink:href="#m93518f4b44" x="389.6875" y="58.463545" style="stroke: #000000; stroke-width: 0.8"/>
      </g>
     </g>
     <g id="text_30">
      <!-- 180 -->
      <g transform="translate(363.6 62.262764) scale(0.1 -0.1)">
       <use xlink:href="#DejaVuSans-31"/>
       <use xlink:href="#DejaVuSans-38" x="63.623047"/>
       <use xlink:href="#DejaVuSans-30" x="127.246094"/>
      </g>
     </g>
    </g>
   </g>
   <g id="line2d_55">
    <path d="M 404.56533 200.874315 
L 454.158097 169.83607 
L 503.750863 140.623605 
L 553.34363 98.630685 
L 602.936397 45.683091 
L 652.529163 199.048536 
L 702.12193 89.50179 
" clip-path="url(#p2122fea521)" style="fill: none; stroke: #1f77b4; stroke-width: 1.5; stroke-linecap: square"/>
    <g clip-path="url(#p2122fea521)">
     <use xlink:href="#m4ba52f9f7b" x="404.56533" y="200.874315" style="fill: #1f77b4; stroke: #1f77b4"/>
     <use xlink:href="#m4ba52f9f7b" x="454.158097" y="169.83607" style="fill: #1f77b4; stroke: #1f77b4"/>
     <use xlink:href="#m4ba52f9f7b" x="503.750863" y="140.623605" style="fill: #1f77b4; stroke: #1f77b4"/>
     <use xlink:href="#m4ba52f9f7b" x="553.34363" y="98.630685" style="fill: #1f77b4; stroke: #1f77b4"/>
     <use xlink:href="#m4ba52f9f7b" x="602.936397" y="45.683091" style="fill: #1f77b4; stroke: #1f77b4"/>
     <use xlink:href="#m4ba52f9f7b" x="652.529163" y="199.048536" style="fill: #1f77b4; stroke: #1f77b4"/>
     <use xlink:href="#m4ba52f9f7b" x="702.12193" y="89.50179" style="fill: #1f77b4; stroke: #1f77b4"/>
    </g>
   </g>
   <g id="line2d_56">
    <path d="M 404.56533 217.306327 
L 454.158097 200.874315 
L 503.750863 173.487629 
L 553.34363 107.759581 
L 602.936397 115.062697 
L 652.529163 244.693014 
L 702.12193 175.313408 
" clip-path="url(#p2122fea521)" style="fill: none; stroke: #ff7f0e; stroke-width: 1.5; stroke-linecap: square"/>
    <g clip-path="url(#p2122fea521)">
     <use xlink:href="#mc55b5df3be" x="404.56533" y="217.306327" style="fill: #ff7f0e; stroke: #ff7f0e"/>
     <use xlink:href="#mc55b5df3be" x="454.158097" y="200.874315" style="fill: #ff7f0e; stroke: #ff7f0e"/>
     <use xlink:href="#mc55b5df3be" x="503.750863" y="173.487629" style="fill: #ff7f0e; stroke: #ff7f0e"/>
     <use xlink:href="#mc55b5df3be" x="553.34363" y="107.759581" style="fill: #ff7f0e; stroke: #ff7f0e"/>
     <use xlink:href="#mc55b5df3be" x="602.936397" y="115.062697" style="fill: #ff7f0e; stroke: #ff7f0e"/>
     <use xlink:href="#mc55b5df3be" x="652.529163" y="244.693014" style="fill: #ff7f0e; stroke: #ff7f0e"/>
     <use xlink:href="#mc55b5df3be" x="702.12193" y="175.313408" style="fill: #ff7f0e; stroke: #ff7f0e"/>
    </g>
   </g>
   <g id="patch_9">
    <path d="M 389.6875 254.64351 
L 389.6875 35.732595 
" style="fill: none; stroke: #000000; stroke-width: 0.8; stroke-linejoin: miter; stroke-linecap: square"/>
   </g>
   <g id="patch_10">
    <path d="M 716.99976 254.64351 
L 716.99976 35.732595 
" style="fill: none; stroke: #000000; stroke-width: 0.8; stroke-linejoin: miter; stroke-linecap: square"/>
   </g>
   <g id="patch_11">
    <path d="M 389.6875 254.64351 
L 716.99976 254.64351 
" style="fill: none; stroke: #000000; stroke-width: 0.8; stroke-linejoin: miter; stroke-linecap: square"/>
   </g>
   <g id="patch_12">
    <path d="M 389.6875 35.732595 
L 716.99976 35.732595 
" style="fill: none; stroke: #000000; stroke-width: 0.8; stroke-linejoin: miter; stroke-linecap: square"/>
   </g>
   <g id="text_31">
    <!-- Living crops -->
    <g transform="translate(517.360505 29.732595) scale(0.12 -0.12)">
     <defs>
      <path id="DejaVuSans-4c" d="M 628 4666 
L 1259 4666 
L 1259 531 
L 3531 531 
L 3531 0 
L 628 0 
L 628 4666 
z
" transform="scale(0.015625)"/>
     </defs>
     <use xlink:href="#DejaVuSans-4c"/>
     <use xlink:href="#DejaVuSans-69" x="55.712891"/>
     <use xlink:href="#DejaVuSans-76" x="83.496094"/>
     <use xlink:href="#DejaVuSans-69" x="142.675781"/>
     <use xlink:href="#DejaVuSans-6e" x="170.458984"/>
     <use xlink:href="#DejaVuSans-67" x="233.837891"/>
     <use xlink:href="#DejaVuSans-20" x="297.314453"/>
     <use xlink:href="#DejaVuSans-63" x="329.101562"/>
     <use xlink:href="#DejaVuSans-72" x="384.082031"/>
     <use xlink:href="#DejaVuSans-6f" x="422.945312"/>
     <use xlink:href="#DejaVuSans-70" x="484.126953"/>
     <use xlink:href="#DejaVuSans-73" x="547.603516"/>
    </g>
   </g>
   <g id="legend_2">
    <g id="patch_13">
     <path d="M 640.254447 73.088845 
L 709.99976 73.088845 
Q 711.99976 73.088845 711.99976 71.088845 
L 711.99976 42.732595 
Q 711.99976 40.732595 709.99976 40.732595 
L 640.254447 40.732595 
Q 638.254447 40.732595 638.254447 42.732595 
L 638.254447 71.088845 
Q 638.254447 73.088845 640.254447 73.088845 
z
" style="fill: #ffffff; opacity: 0.8; stroke: #cccccc; stroke-linejoin: miter"/>
    </g>
    <g id="line2d_57">
     <path d="M 642.254447 48.831032 
L 652.254447 48.831032 
L 662.254447 48.831032 
" style="fill: none; stroke: #1f77b4; stroke-width: 1.5; stroke-linecap: square"/>
     <g>
      <use xlink:href="#m4ba52f9f7b" x="652.254447" y="48.831032" style="fill: #1f77b4; stroke: #1f77b4"/>
     </g>
    </g>
    <g id="text_32">
     <!-- good -->
     <g transform="translate(670.254447 52.331032) scale(0.1 -0.1)">
      <use xlink:href="#DejaVuSans-67"/>
      <use xlink:href="#DejaVuSans-6f" x="63.476562"/>
      <use xlink:href="#DejaVuSans-6f" x="124.658203"/>
      <use xlink:href="#DejaVuSans-64" x="185.839844"/>
     </g>
    </g>
    <g id="line2d_58">
     <path d="M 642.254447 63.509157 
L 652.254447 63.509157 
L 662.254447 63.509157 
" style="fill: none; stroke: #ff7f0e; stroke-width: 1.5; stroke-linecap: square"/>
     <g>
      <use xlink:href="#mc55b5df3be" x="652.254447" y="63.509157" style="fill: #ff7f0e; stroke: #ff7f0e"/>
     </g>
    </g>
    <g id="text_33">
     <!-- passive -->
     <g transform="translate(670.254447 67.009157) scale(0.1 -0.1)">
      <use xlink:href="#DejaVuSans-70"/>
      <use xlink:href="#DejaVuSans-61" x="63.476562"/>
      <use xlink:href="#DejaVuSans-73" x="124.755859"/>
      <use xlink:href="#DejaVuSans-73" x="176.855469"/>
      <use xlink:href="#DejaVuSans-69" x="228.955078"/>
      <use xlink:href="#DejaVuSans-76" x="256.738281"/>
      <use xlink:href="#DejaVuSans-65" x="315.917969"/>
     </g>
    </g>
   </g>
  </g>
  <g id="text_34">
   <!-- Seed 712: moderate agricultural magic versus passive management -->
   <g transform="translate(153.72 12.118365) scale(0.12 -0.12)">
    <defs>
     <path id="DejaVuSans-53" d="M 3425 4513 
L 3425 3897 
Q 3066 4069 2747 4153 
Q 2428 4238 2131 4238 
Q 1616 4238 1336 4038 
Q 1056 3838 1056 3469 
Q 1056 3159 1242 3001 
Q 1428 2844 1947 2747 
L 2328 2669 
Q 3034 2534 3370 2195 
Q 3706 1856 3706 1288 
Q 3706 609 3251 259 
Q 2797 -91 1919 -91 
Q 1588 -91 1214 -16 
Q 841 59 441 206 
L 441 856 
Q 825 641 1194 531 
Q 1563 422 1919 422 
Q 2459 422 2753 634 
Q 3047 847 3047 1241 
Q 3047 1584 2836 1778 
Q 2625 1972 2144 2069 
L 1759 2144 
Q 1053 2284 737 2584 
Q 422 2884 422 3419 
Q 422 4038 858 4394 
Q 1294 4750 2059 4750 
Q 2388 4750 2728 4690 
Q 3069 4631 3425 4513 
z
" transform="scale(0.015625)"/>
     <path id="DejaVuSans-3a" d="M 750 794 
L 1409 794 
L 1409 0 
L 750 0 
L 750 794 
z
M 750 3309 
L 1409 3309 
L 1409 2516 
L 750 2516 
L 750 3309 
z
" transform="scale(0.015625)"/>
     <path id="DejaVuSans-6d" d="M 3328 2828 
Q 3544 3216 3844 3400 
Q 4144 3584 4550 3584 
Q 5097 3584 5394 3201 
Q 5691 2819 5691 2113 
L 5691 0 
L 5113 0 
L 5113 2094 
Q 5113 2597 4934 2840 
Q 4756 3084 4391 3084 
Q 3944 3084 3684 2787 
Q 3425 2491 3425 1978 
L 3425 0 
L 2847 0 
L 2847 2094 
Q 2847 2600 2669 2842 
Q 2491 3084 2119 3084 
Q 1678 3084 1418 2786 
Q 1159 2488 1159 1978 
L 1159 0 
L 581 0 
L 581 3500 
L 1159 3500 
L 1159 2956 
Q 1356 3278 1631 3431 
Q 1906 3584 2284 3584 
Q 2666 3584 2933 3390 
Q 3200 3197 3328 2828 
z
" transform="scale(0.015625)"/>
    </defs>
    <use xlink:href="#DejaVuSans-53"/>
    <use xlink:href="#DejaVuSans-65" x="63.476562"/>
    <use xlink:href="#DejaVuSans-65" x="125"/>
    <use xlink:href="#DejaVuSans-64" x="186.523438"/>
    <use xlink:href="#DejaVuSans-20" x="250"/>
    <use xlink:href="#DejaVuSans-37" x="281.787109"/>
    <use xlink:href="#DejaVuSans-31" x="345.410156"/>
    <use xlink:href="#DejaVuSans-32" x="409.033203"/>
    <use xlink:href="#DejaVuSans-3a" x="472.65625"/>
    <use xlink:href="#DejaVuSans-20" x="506.347656"/>
    <use xlink:href="#DejaVuSans-6d" x="538.134766"/>
    <use xlink:href="#DejaVuSans-6f" x="635.546875"/>
    <use xlink:href="#DejaVuSans-64" x="696.728516"/>
    <use xlink:href="#DejaVuSans-65" x="760.205078"/>
    <use xlink:href="#DejaVuSans-72" x="821.728516"/>
    <use xlink:href="#DejaVuSans-61" x="862.841797"/>
    <use xlink:href="#DejaVuSans-74" x="924.121094"/>
    <use xlink:href="#DejaVuSans-65" x="963.330078"/>
    <use xlink:href="#DejaVuSans-20" x="1024.853516"/>
    <use xlink:href="#DejaVuSans-61" x="1056.640625"/>
    <use xlink:href="#DejaVuSans-67" x="1117.919922"/>
    <use xlink:href="#DejaVuSans-72" x="1181.396484"/>
    <use xlink:href="#DejaVuSans-69" x="1222.509766"/>
    <use xlink:href="#DejaVuSans-63" x="1250.292969"/>
    <use xlink:href="#DejaVuSans-75" x="1305.273438"/>
    <use xlink:href="#DejaVuSans-6c" x="1368.652344"/>
    <use xlink:href="#DejaVuSans-74" x="1396.435547"/>
    <use xlink:href="#DejaVuSans-75" x="1435.644531"/>
    <use xlink:href="#DejaVuSans-72" x="1499.023438"/>
    <use xlink:href="#DejaVuSans-61" x="1540.136719"/>
    <use xlink:href="#DejaVuSans-6c" x="1601.416016"/>
    <use xlink:href="#DejaVuSans-20" x="1629.199219"/>
    <use xlink:href="#DejaVuSans-6d" x="1660.986328"/>
    <use xlink:href="#DejaVuSans-61" x="1758.398438"/>
    <use xlink:href="#DejaVuSans-67" x="1819.677734"/>
    <use xlink:href="#DejaVuSans-69" x="1883.154297"/>
    <use xlink:href="#DejaVuSans-63" x="1910.9375"/>
    <use xlink:href="#DejaVuSans-20" x="1965.917969"/>
    <use xlink:href="#DejaVuSans-76" x="1997.705078"/>
    <use xlink:href="#DejaVuSans-65" x="2056.884766"/>
    <use xlink:href="#DejaVuSans-72" x="2118.408203"/>
    <use xlink:href="#DejaVuSans-73" x="2159.521484"/>
    <use xlink:href="#DejaVuSans-75" x="2211.621094"/>
    <use xlink:href="#DejaVuSans-73" x="2275"/>
    <use xlink:href="#DejaVuSans-20" x="2327.099609"/>
    <use xlink:href="#DejaVuSans-70" x="2358.886719"/>
    <use xlink:href="#DejaVuSans-61" x="2422.363281"/>
    <use xlink:href="#DejaVuSans-73" x="2483.642578"/>
    <use xlink:href="#DejaVuSans-73" x="2535.742188"/>
    <use xlink:href="#DejaVuSans-69" x="2587.841797"/>
    <use xlink:href="#DejaVuSans-76" x="2615.625"/>
    <use xlink:href="#DejaVuSans-65" x="2674.804688"/>
    <use xlink:href="#DejaVuSans-20" x="2736.328125"/>
    <use xlink:href="#DejaVuSans-6d" x="2768.115234"/>
    <use xlink:href="#DejaVuSans-61" x="2865.527344"/>
    <use xlink:href="#DejaVuSans-6e" x="2926.806641"/>
    <use xlink:href="#DejaVuSans-61" x="2990.185547"/>
    <use xlink:href="#DejaVuSans-67" x="3051.464844"/>
    <use xlink:href="#DejaVuSans-65" x="3114.941406"/>
    <use xlink:href="#DejaVuSans-6d" x="3176.464844"/>
    <use xlink:href="#DejaVuSans-65" x="3273.876953"/>
    <use xlink:href="#DejaVuSans-6e" x="3335.400391"/>
    <use xlink:href="#DejaVuSans-74" x="3398.779297"/>
   </g>
  </g>
 </g>
 <defs>
  <clipPath id="pe89aad6c7c">
   <rect x="29.08774" y="35.732595" width="327.31226" height="218.910915"/>
  </clipPath>
  <clipPath id="p2122fea521">
   <rect x="389.6875" y="35.732595" width="327.31226" height="218.910915"/>
  </clipPath>
 </defs>
</svg>
